<?xml version="1.0" standalone="no"?>
<!DOCTYPE svg PUBLIC "-//W3C//DTD SVG 20010904//EN"
 "http://www.w3.org/TR/2001/REC-SVG-20010904/DTD/svg10.dtd">
<svg version="1.0" xmlns="http://www.w3.org/2000/svg"
 width="220.000000pt" height="220.000000pt" viewBox="0 0 220.000000 220.000000"
 preserveAspectRatio="xMidYMid meet">

<g transform="translate(0.000000,220.000000) scale(0.100000,-0.100000)"
fill="#000000" stroke="none">
<path d="M1020 2163 c-83 -13 -255 -101 -252 -127 1 -5 32 -19 71 -32 l69 -23
41 20 c176 85 392 2 476 -184 57 -125 53 -247 -15 -461 -22 -70 -40 -133 -40
-141 0 -16 107 -92 116 -82 6 6 61 189 95 317 25 94 27 240 4 325 -72 268
-307 430 -565 388z"/>
<path d="M540 1986 c-117 -31 -242 -131 -294 -234 -32 -64 -56 -152 -56 -210
l0 -43 28 19 c15 11 45 29 68 40 34 18 43 28 54 67 18 63 64 130 123 176 102
81 240 90 373 24 100 -49 177 -134 288 -320 55 -91 114 -174 152 -214 l62 -66
21 69 c11 37 21 72 21 76 0 4 -17 29 -38 56 -22 27 -72 103 -112 169 -90 148
-145 219 -213 274 -62 51 -153 99 -222 117 -62 17 -195 17 -255 0z"/>
<path d="M1546 1948 c19 -29 34 -58 34 -64 0 -7 24 -20 54 -29 29 -9 75 -33
102 -54 225 -169 161 -489 -138 -683 -43 -28 -78 -58 -78 -66 0 -7 7 -38 16
-68 l15 -54 42 21 c94 48 217 147 281 229 187 237 180 511 -18 698 -82 78
-188 122 -292 122 l-53 0 35 -52z"/>
<path d="M1239 1907 c-25 -18 -63 -46 -84 -63 l-38 -31 42 -56 43 -56 65 55
c35 30 76 60 89 66 13 6 24 15 24 19 0 16 -76 99 -90 98 -3 0 -26 -14 -51 -32z"/>
<path d="M637 1843 c-19 -31 -49 -206 -37 -216 3 -2 33 -7 67 -10 l62 -7 7 58
c4 31 13 77 20 102 18 60 19 58 -23 65 -21 4 -50 9 -65 11 -14 3 -28 1 -31 -3z"/>
<path d="M971 1594 c-13 -25 -46 -77 -73 -117 -26 -40 -48 -75 -48 -78 0 -10
128 -41 139 -34 14 8 91 138 91 153 0 14 -70 122 -79 122 -3 0 -17 -20 -30
-46z"/>
<path d="M520 1594 c-139 -23 -245 -66 -320 -129 -25 -20 -64 -63 -87 -93
-129 -173 -122 -417 18 -594 l31 -39 27 78 27 78 -26 45 c-22 40 -25 56 -25
150 0 95 3 110 27 156 90 170 305 249 532 195 100 -24 99 -24 147 46 l30 43
-28 11 c-95 36 -283 65 -353 53z"/>
<path d="M1626 1544 c-10 -79 -9 -84 22 -84 24 0 71 -11 158 -36 20 -5 23 0
33 57 6 35 7 66 3 70 -12 13 -128 39 -170 39 -39 0 -39 0 -46 -46z"/>
<path d="M1360 1553 c-30 -9 -57 -17 -59 -19 -3 -3 88 -124 94 -124 7 0 35
108 35 134 0 30 3 29 -70 9z"/>
<path d="M1058 1417 c-42 -71 -39 -77 42 -77 84 0 88 7 43 79 -21 33 -40 61
-43 61 -3 0 -21 -28 -42 -63z"/>
<path d="M2010 1363 l-25 -77 22 -45 c130 -264 -100 -543 -427 -518 -41 3
-103 15 -137 25 l-62 20 -41 -59 -41 -59 28 -11 c135 -52 319 -67 443 -35 203
51 347 186 396 369 16 61 18 164 3 227 -14 62 -62 158 -101 202 l-33 38 -25
-77z"/>
<path d="M624 1415 c3 -8 24 -75 47 -148 23 -72 43 -134 45 -136 5 -6 89 46
104 64 16 19 1 96 -33 165 -20 41 -26 45 -77 57 -75 17 -93 16 -86 -2z"/>
<path d="M313 1347 c-23 -17 -45 -40 -48 -49 -6 -17 39 -91 97 -161 l24 -29
52 41 c29 23 52 44 52 46 0 3 -21 31 -46 62 -25 31 -53 71 -62 89 -8 19 -18
34 -21 34 -3 0 -25 -15 -48 -33z"/>
<path d="M820 1366 c0 -2 9 -34 20 -70 18 -58 23 -65 39 -56 29 15 83 82 74
90 -4 4 -33 15 -65 24 -59 17 -68 18 -68 12z"/>
<path d="M551 1193 c-377 -232 -473 -618 -219 -876 78 -79 182 -128 284 -135
l75 -5 -36 54 c-19 29 -35 59 -35 66 0 7 -17 17 -37 23 -193 53 -297 251 -232
442 39 117 143 238 267 311 54 32 57 35 56 73 -1 21 -7 54 -15 72 l-14 33 -94
-58z"/>
<path d="M1541 1218 c-16 -53 -24 -108 -14 -108 12 0 123 70 123 78 0 6 -64
47 -92 60 -3 2 -11 -12 -17 -30z"/>
<path d="M777 1132 c-31 -20 -57 -39 -57 -42 0 -3 27 -22 59 -42 68 -42 71
-40 71 45 0 78 -7 82 -73 39z"/>
<path d="M1357 1163 c-9 -8 -9 -100 -1 -130 5 -20 8 -21 28 -9 11 8 41 26 65
41 l43 27 -33 20 c-19 11 -48 29 -65 39 -17 10 -34 16 -37 12z"/>
<path d="M612 1037 c-69 -43 -69 -48 -3 -85 l39 -22 17 50 c9 27 15 60 13 73
-3 23 -4 23 -66 -16z"/>
<path d="M1758 1027 l-47 -42 57 -76 c31 -42 62 -84 67 -94 9 -15 16 -12 62
30 l52 46 -26 42 c-31 50 -102 137 -111 137 -4 0 -28 -19 -54 -43z"/>
<path d="M694 993 c-9 -32 -32 -107 -51 -168 -44 -138 -56 -309 -29 -413 46
-182 155 -308 321 -372 78 -31 231 -34 317 -7 56 17 179 92 185 113 2 6 -14
14 -38 18 -22 4 -53 13 -69 21 -24 13 -33 12 -91 -13 -96 -40 -192 -38 -281 6
-83 40 -158 120 -189 200 -20 48 -23 76 -24 177 0 114 2 127 43 258 24 75 42
145 40 155 -3 16 -90 82 -109 82 -5 0 -16 -26 -25 -57z"/>
<path d="M1427 1020 c-26 -16 -51 -38 -54 -47 -7 -18 43 -178 61 -192 13 -11
135 -36 141 -29 3 2 -15 69 -40 147 -25 78 -45 144 -45 147 0 10 -19 2 -63
-26z"/>
<path d="M840 880 l-21 -71 53 -72 c30 -40 83 -121 118 -181 115 -193 246
-309 403 -357 55 -17 87 -21 165 -17 87 3 105 7 175 40 45 22 99 58 131 88 85
80 146 216 146 322 l0 49 -27 -19 c-16 -11 -46 -29 -69 -40 -33 -17 -43 -29
-53 -64 -29 -99 -92 -171 -188 -215 -72 -33 -143 -39 -223 -19 -134 34 -238
125 -336 294 -110 189 -189 298 -234 322 -17 9 -21 4 -40 -60z"/>
<path d="M1285 904 c-48 -48 -103 -126 -145 -200 l-23 -42 38 -61 c21 -34 41
-61 45 -61 4 0 21 27 39 59 17 33 56 94 87 137 l56 78 -18 60 c-9 34 -21 65
-25 70 -4 4 -28 -13 -54 -40z"/>
<path d="M1026 832 c-2 -4 14 -36 36 -71 l40 -63 40 62 c30 49 36 65 26 71
-17 11 -135 12 -142 1z"/>
<path d="M792 733 c-14 -46 -26 -123 -20 -123 13 0 114 33 121 39 7 7 -71 120
-84 121 -3 0 -11 -17 -17 -37z"/>
<path d="M365 713 c-13 -92 -16 -86 55 -105 36 -9 84 -17 106 -17 l41 -1 7 46
c10 78 9 84 -21 84 -25 0 -102 17 -160 35 -19 6 -22 2 -28 -42z"/>
<path d="M1465 517 c-3 -28 -13 -76 -22 -105 -9 -29 -13 -55 -10 -58 3 -4 35
-9 70 -11 l64 -5 12 43 c17 60 30 163 22 170 -3 4 -34 9 -68 12 l-61 7 -7 -53z"/>
<path d="M957 442 c-20 -21 -59 -51 -87 -67 -53 -32 -55 -39 -17 -85 42 -53
52 -54 110 -16 29 19 68 48 87 64 l34 29 -42 57 c-24 31 -44 56 -45 56 -2 0
-20 -17 -40 -38z"/>
</g>
</svg>
